<svg width="14" height="13" viewBox="0 0 14 13" fill="none" xmlns="http://www.w3.org/2000/svg">
<path fill-rule="evenodd" clip-rule="evenodd" d="M1 2.14463C1.55228 2.14463 2 1.6985 2 1.14818C2 0.597864 1.55228 0.151733 1 0.151733C0.44772 0.151733 0 0.597864 0 1.14818C0 1.6985 0.44772 2.14463 1 2.14463ZM4.75 0.649959C4.33579 0.649959 4 0.984557 4 1.3973C4 1.81004 4.33579 2.14463 4.75 2.14463H13.25C13.6642 2.14463 14 1.81004 14 1.3973C14 0.984557 13.6642 0.649959 13.25 0.649959H4.75ZM4.75 5.63221C4.33579 5.63221 4 5.96681 4 6.37955C4 6.79229 4.33579 7.12689 4.75 7.12689H8.75C9.1642 7.12689 9.5 6.79229 9.5 6.37955C9.5 5.96681 9.1642 5.63221 8.75 5.63221H4.75ZM4.75 10.6145C4.33579 10.6145 4 10.9491 4 11.3618C4 11.7745 4.33579 12.1091 4.75 12.1091H13.25C13.6642 12.1091 14 11.7745 14 11.3618C14 10.9491 13.6642 10.6145 13.25 10.6145H4.75ZM2 6.13044C2 6.68076 1.55228 7.12689 1 7.12689C0.44772 7.12689 0 6.68076 0 6.13044C0 5.58012 0.44772 5.13399 1 5.13399C1.55228 5.13399 2 5.58012 2 6.13044ZM1 12.1091C1.55228 12.1091 2 11.663 2 11.1127C2 10.5623 1.55228 10.1162 1 10.1162C0.44772 10.1162 0 10.5623 0 11.1127C0 11.663 0.44772 12.1091 1 12.1091Z" fill="#182C4C"/>
</svg>
