<svg width="14" height="13" viewBox="0 0 14 13" fill="none" xmlns="http://www.w3.org/2000/svg">
<path fill-rule="evenodd" clip-rule="evenodd" d="M0 1.3677C0 1.16949 0.0790201 0.979402 0.21967 0.839251C0.36032 0.699101 0.55109 0.620361 0.75 0.620361H13.25C13.4489 0.620361 13.6397 0.699101 13.7803 0.839251C13.921 0.979402 14 1.16949 14 1.3677C14 1.5659 13.921 1.75599 13.7803 1.89614C13.6397 2.0363 13.4489 2.11503 13.25 2.11503H0.75C0.55109 2.11503 0.36032 2.0363 0.21967 1.89614C0.0790201 1.75599 0 1.5659 0 1.3677ZM0 6.34994C0 6.15174 0.0790201 5.96165 0.21967 5.8215C0.36032 5.68135 0.55109 5.60261 0.75 5.60261H13.25C13.4489 5.60261 13.6397 5.68135 13.7803 5.8215C13.921 5.96165 14 6.15174 14 6.34994C14 6.54815 13.921 6.73824 13.7803 6.87839C13.6397 7.01854 13.4489 7.09728 13.25 7.09728H0.75C0.55109 7.09728 0.36032 7.01854 0.21967 6.87839C0.0790201 6.73824 0 6.54815 0 6.34994ZM0.75 10.5849C0.55109 10.5849 0.36032 10.6636 0.21967 10.8038C0.0790201 10.9439 0 11.134 0 11.3322C0 11.5304 0.0790201 11.7205 0.21967 11.8606C0.36032 12.0008 0.55109 12.0795 0.75 12.0795H5.86808C6.06698 12.0795 6.25778 12.0008 6.39838 11.8606C6.53908 11.7205 6.61808 11.5304 6.61808 11.3322C6.61808 11.134 6.53908 10.9439 6.39838 10.8038C6.25778 10.6636 6.06698 10.5849 5.86808 10.5849H0.75Z" fill="#182C4C"/>
</svg>
